<svg xmlns="http://www.w3.org/2000/svg" width="153.936" height="45.31" viewBox="0 0 153.936 45.31">
  <g id="App_Store" data-name="App Store" transform="translate(-25.459 -17.799)">
    <g id="Group_54457" data-name="Group 54457" transform="translate(25.459 17.799)">
      <g id="Group_54452" data-name="Group 54452">
        <rect id="Rectangle_903" data-name="Rectangle 903" width="152.793" height="44.167" rx="7.382" transform="translate(0.571 0.571)"/>
        <path id="Path_52523" data-name="Path 52523" d="M173.6,63.108H31.252a5.8,5.8,0,0,1-5.793-5.793V23.592A5.8,5.8,0,0,1,31.252,17.8H173.6a5.8,5.8,0,0,1,5.793,5.793V57.315A5.8,5.8,0,0,1,173.6,63.108ZM31.252,18.941A4.656,4.656,0,0,0,26.6,23.592V57.315a4.656,4.656,0,0,0,4.651,4.65H173.6a4.656,4.656,0,0,0,4.651-4.65V23.592a4.656,4.656,0,0,0-4.651-4.651Z" transform="translate(-25.459 -17.799)" fill="#96999c"/>
      </g>
      <g id="Group_54453" data-name="Group 54453" transform="translate(49.206 7.142)">
        <path id="Path_52524" data-name="Path 52524" d="M97.063,33.808l-.641,2.109h-1.4l2.385-7.442h1.733l2.419,7.442H100.1l-.673-2.109Zm2.131-1.027-.586-1.833c-.144-.453-.265-.961-.376-1.391h-.022c-.11.431-.221.949-.354,1.391l-.574,1.833Z" transform="translate(-95.02 -28.065)" fill="#fff"/>
        <path id="Path_52525" data-name="Path 52525" d="M106.523,31.393l.871,2.728c.155.475.265.905.365,1.347h.033c.1-.441.221-.861.364-1.347l.861-2.728h1.425l-2.054,5.377h-1.336l-2-5.377Z" transform="translate(-97.956 -28.919)" fill="#fff"/>
        <path id="Path_52526" data-name="Path 52526" d="M118.452,35.429a7.228,7.228,0,0,0,.088,1.292h-1.226l-.1-.6h-.033a1.965,1.965,0,0,1-1.59.718,1.6,1.6,0,0,1-1.689-1.6c0-1.347,1.2-2.042,3.191-2.032v-.088c0-.353-.144-.938-1.093-.938a2.84,2.84,0,0,0-1.447.4l-.265-.884a3.87,3.87,0,0,1,1.944-.475,2.014,2.014,0,0,1,2.219,2.274Zm-1.325-1.336c-.961-.011-1.877.187-1.877,1.005a.713.713,0,0,0,.773.772,1.115,1.115,0,0,0,1.071-.74.912.912,0,0,0,.033-.3Z" transform="translate(-100.546 -28.869)" fill="#fff"/>
        <path id="Path_52527" data-name="Path 52527" d="M123.69,29.693a.769.769,0,1,1,.011,0Zm-.673,6.151V30.466h1.358v5.377Z" transform="translate(-103.19 -27.992)" fill="#fff"/>
        <path id="Path_52528" data-name="Path 52528" d="M127.73,27.9h1.358v7.851H127.73Z" transform="translate(-104.592 -27.896)" fill="#fff"/>
        <path id="Path_52529" data-name="Path 52529" d="M136.446,35.429a7.3,7.3,0,0,0,.088,1.292h-1.226l-.1-.6h-.033a1.964,1.964,0,0,1-1.59.718,1.6,1.6,0,0,1-1.689-1.6c0-1.347,1.2-2.042,3.191-2.032v-.088c0-.353-.143-.938-1.093-.938a2.84,2.84,0,0,0-1.447.4l-.265-.884a3.867,3.867,0,0,1,1.943-.475,2.015,2.015,0,0,1,2.22,2.274Zm-1.326-1.336c-.961-.011-1.877.187-1.877,1.005a.712.712,0,0,0,.772.772,1.115,1.115,0,0,0,1.071-.74.912.912,0,0,0,.033-.3Z" transform="translate(-105.811 -28.869)" fill="#fff"/>
        <path id="Path_52530" data-name="Path 52530" d="M141.024,27.9h1.358V31.11h.022a1.947,1.947,0,0,1,1.722-.861c1.314,0,2.252,1.093,2.241,2.727,0,1.933-1.225,2.893-2.44,2.893a1.851,1.851,0,0,1-1.7-.928H142.2l-.066.806h-1.159c.022-.364.045-.961.045-1.5Zm1.358,5.631a1.506,1.506,0,0,0,.033.32,1.241,1.241,0,0,0,1.2.95c.85,0,1.369-.673,1.369-1.767,0-.949-.453-1.722-1.358-1.722a1.262,1.262,0,0,0-1.2.994,1.63,1.63,0,0,0-.044.354Z" transform="translate(-108.469 -27.896)" fill="#fff"/>
        <path id="Path_52531" data-name="Path 52531" d="M150.857,27.9h1.358v7.851h-1.358Z" transform="translate(-111.359 -27.896)" fill="#fff"/>
        <path id="Path_52532" data-name="Path 52532" d="M156.374,34.413A1.461,1.461,0,0,0,158.03,35.8a4.33,4.33,0,0,0,1.49-.243l.2.927a4.827,4.827,0,0,1-1.877.342,2.544,2.544,0,0,1-2.772-2.716,2.663,2.663,0,0,1,2.629-2.892,2.337,2.337,0,0,1,2.318,2.617,3.463,3.463,0,0,1-.043.574Zm2.363-.95a1.156,1.156,0,0,0-1.116-1.314,1.328,1.328,0,0,0-1.247,1.314Z" transform="translate(-112.592 -28.869)" fill="#fff"/>
        <path id="Path_52533" data-name="Path 52533" d="M170.421,36.842a2.6,2.6,0,0,1-2.7-2.771,2.655,2.655,0,0,1,2.784-2.849,2.58,2.58,0,0,1,2.672,2.76,2.662,2.662,0,0,1-2.75,2.86Zm.044-.983c.772,0,1.314-.751,1.314-1.843,0-.84-.376-1.811-1.3-1.811-.961,0-1.348.939-1.348,1.833,0,1.038.519,1.821,1.326,1.821Z" transform="translate(-116.296 -28.869)" fill="#fff"/>
        <path id="Path_52534" data-name="Path 52534" d="M177.681,32.944c0-.619-.022-1.137-.045-1.6h1.181l.066.806h.033a1.974,1.974,0,0,1,1.722-.927c.939,0,1.911.607,1.911,2.307V36.72h-1.358V33.684c0-.773-.288-1.359-1.027-1.359a1.14,1.14,0,0,0-1.06.8,1.252,1.252,0,0,0-.066.431V36.72h-1.358Z" transform="translate(-119.196 -28.869)" fill="#fff"/>
        <path id="Path_52535" data-name="Path 52535" d="M192.561,29.442v1.38h1.292v1.016h-1.292V34.2c0,.662.177.994.7.994a1.783,1.783,0,0,0,.53-.055l.022,1.026a2.967,2.967,0,0,1-.983.144,1.555,1.555,0,0,1-1.17-.441,2.118,2.118,0,0,1-.43-1.513V31.838h-.763V30.822h.763v-1Z" transform="translate(-122.949 -28.348)" fill="#fff"/>
        <path id="Path_52536" data-name="Path 52536" d="M197.393,27.9h1.358v3.2h.022a1.792,1.792,0,0,1,.673-.607,1.914,1.914,0,0,1,.939-.243c.916,0,1.877.607,1.877,2.329v3.169H200.9V32.722c0-.773-.287-1.369-1.038-1.369a1.134,1.134,0,0,0-1.06.762,1.231,1.231,0,0,0-.055.409v3.224h-1.358Z" transform="translate(-124.977 -27.896)" fill="#fff"/>
        <path id="Path_52537" data-name="Path 52537" d="M207.825,34.413a1.461,1.461,0,0,0,1.656,1.391,4.33,4.33,0,0,0,1.49-.243l.2.927a4.827,4.827,0,0,1-1.877.342,2.544,2.544,0,0,1-2.772-2.716,2.663,2.663,0,0,1,2.629-2.892,2.337,2.337,0,0,1,2.318,2.617,3.464,3.464,0,0,1-.043.574Zm2.363-.95a1.156,1.156,0,0,0-1.115-1.314,1.328,1.328,0,0,0-1.248,1.314Z" transform="translate(-127.648 -28.869)" fill="#fff"/>
      </g>
      <g id="Group_54456" data-name="Group 54456" transform="translate(14.541 6.707)">
        <g id="Group_54454" data-name="Group 54454">
          <path id="Path_52538" data-name="Path 52538" d="M65.829,45.695a6.623,6.623,0,0,1,3.155-5.559,6.782,6.782,0,0,0-5.344-2.89c-2.248-.236-4.429,1.348-5.572,1.348-1.168,0-2.935-1.323-4.833-1.285a7.118,7.118,0,0,0-5.989,3.654c-2.589,4.483-.658,11.072,1.822,14.7,1.241,1.774,2.692,3.756,4.59,3.685,1.857-.077,2.549-1.183,4.792-1.183,2.222,0,2.873,1.183,4.809,1.138,1.993-.033,3.247-1.783,4.444-3.574a14.583,14.583,0,0,0,2.034-4.141,6.4,6.4,0,0,1-3.908-5.89" transform="translate(-46.016 -30.189)" fill="#fff"/>
          <path id="Path_52539" data-name="Path 52539" d="M67.046,31.954a6.511,6.511,0,0,0,1.492-4.674A6.629,6.629,0,0,0,64.246,29.5,6.2,6.2,0,0,0,62.713,34a5.489,5.489,0,0,0,4.333-2.049" transform="translate(-50.892 -27.28)" fill="#fff"/>
        </g>
        <g id="Group_54455" data-name="Group 54455" transform="translate(33.853 13.472)">
          <path id="Path_52540" data-name="Path 52540" d="M106.674,61.81h-2.586l-1.418-4.456H97.744L96.393,61.81h-2.52l4.884-15.165h3.012Zm-4.43-6.325-1.281-3.96q-.206-.6-.766-2.856h-.045q-.226.969-.722,2.856l-1.26,3.96Z" transform="translate(-93.873 -46.419)" fill="#fff"/>
          <path id="Path_52541" data-name="Path 52541" d="M125.363,57.863a6.217,6.217,0,0,1-1.507,4.41,4.408,4.408,0,0,1-3.351,1.439A3.357,3.357,0,0,1,117.4,62.16h-.042v5.759h-2.432V56.13q0-1.754-.089-3.6h2.136l.136,1.733h.046a4.321,4.321,0,0,1,6.917-.427,6.029,6.029,0,0,1,1.293,4.026m-2.474.089a4.51,4.51,0,0,0-.72-2.632,2.49,2.49,0,0,0-2.114-1.081,2.523,2.523,0,0,0-1.631.6,2.774,2.774,0,0,0-.957,1.566,3.168,3.168,0,0,0-.111.74v1.824a2.918,2.918,0,0,0,.728,2.012,2.426,2.426,0,0,0,1.9.821,2.477,2.477,0,0,0,2.136-1.056,4.643,4.643,0,0,0,.766-2.791" transform="translate(-100.007 -48.075)" fill="#fff"/>
          <path id="Path_52542" data-name="Path 52542" d="M143.141,57.863a6.214,6.214,0,0,1-1.508,4.41,4.4,4.4,0,0,1-3.352,1.439,3.353,3.353,0,0,1-3.1-1.553h-.045v5.759H132.7V56.13q0-1.754-.09-3.6h2.136l.136,1.733h.047a4.32,4.32,0,0,1,6.917-.427,6.032,6.032,0,0,1,1.292,4.026m-2.473.089a4.5,4.5,0,0,0-.722-2.632,2.488,2.488,0,0,0-2.114-1.081,2.529,2.529,0,0,0-1.632.6,2.77,2.77,0,0,0-.954,1.566,3.049,3.049,0,0,0-.114.74v1.824a2.91,2.91,0,0,0,.73,2.012,2.419,2.419,0,0,0,1.9.821,2.481,2.481,0,0,0,2.136-1.056,4.668,4.668,0,0,0,.766-2.791" transform="translate(-105.21 -48.075)" fill="#fff"/>
          <path id="Path_52543" data-name="Path 52543" d="M163.484,57.463a4.037,4.037,0,0,1-1.348,3.15,5.962,5.962,0,0,1-4.129,1.327A7.249,7.249,0,0,1,154.075,61l.563-2.025a6.663,6.663,0,0,0,3.514.966,3.324,3.324,0,0,0,2.139-.618,2.029,2.029,0,0,0,.763-1.657,2.118,2.118,0,0,0-.629-1.555,5.864,5.864,0,0,0-2.1-1.172q-3.982-1.489-3.98-4.35a3.844,3.844,0,0,1,1.395-3.064,5.505,5.505,0,0,1,3.712-1.2,7.365,7.365,0,0,1,3.441.721l-.606,1.98a6,6,0,0,0-2.9-.7,2.935,2.935,0,0,0-2,.63,1.808,1.808,0,0,0-.606,1.372,1.849,1.849,0,0,0,.7,1.484,7.836,7.836,0,0,0,2.2,1.171,7.485,7.485,0,0,1,2.88,1.844,3.865,3.865,0,0,1,.922,2.632" transform="translate(-111.49 -46.325)" fill="#fff"/>
          <path id="Path_52544" data-name="Path 52544" d="M175.975,53.32H173.3v5.31q0,2.026,1.419,2.025a4.412,4.412,0,0,0,1.078-.111l.066,1.844a5.456,5.456,0,0,1-1.888.27,2.912,2.912,0,0,1-2.25-.876,4.31,4.31,0,0,1-.81-2.948V53.32h-1.6V51.5h1.6v-2l2.385-.721V51.5h2.677Z" transform="translate(-115.949 -47.042)" fill="#fff"/>
          <path id="Path_52545" data-name="Path 52545" d="M191.381,57.908a6,6,0,0,1-1.439,4.14,5.143,5.143,0,0,1-4,1.664,4.887,4.887,0,0,1-3.836-1.6,5.806,5.806,0,0,1-1.429-4.024,5.936,5.936,0,0,1,1.473-4.163,5.091,5.091,0,0,1,3.97-1.621,5,5,0,0,1,3.871,1.6,5.763,5.763,0,0,1,1.395,4.005m-2.521.079a4.924,4.924,0,0,0-.653-2.595,2.4,2.4,0,0,0-2.18-1.309,2.435,2.435,0,0,0-2.228,1.309,5.025,5.025,0,0,0-.65,2.641,4.921,4.921,0,0,0,.65,2.593,2.45,2.45,0,0,0,2.207,1.308,2.424,2.424,0,0,0,2.179-1.331,4.925,4.925,0,0,0,.675-2.617" transform="translate(-119.273 -48.075)" fill="#fff"/>
          <path id="Path_52546" data-name="Path 52546" d="M204.554,54.667a4.375,4.375,0,0,0-.764-.066,2.306,2.306,0,0,0-1.982.968,3.65,3.65,0,0,0-.606,2.159v5.737h-2.428l.021-7.49q0-1.891-.089-3.443h2.116l.089,2.094h.065a3.746,3.746,0,0,1,1.216-1.733,2.941,2.941,0,0,1,1.756-.586,4,4,0,0,1,.606.043Z" transform="translate(-124.55 -48.075)" fill="#fff"/>
          <path id="Path_52547" data-name="Path 52547" d="M218.313,57.471a5.859,5.859,0,0,1-.088,1.1h-7.288a3.176,3.176,0,0,0,1.056,2.476,3.609,3.609,0,0,0,2.386.763,8.075,8.075,0,0,0,2.946-.516l.381,1.688a9.138,9.138,0,0,1-3.668.676,5.306,5.306,0,0,1-3.993-1.5,5.533,5.533,0,0,1-1.451-4.016,6.268,6.268,0,0,1,1.352-4.118,4.652,4.652,0,0,1,3.822-1.753,4.081,4.081,0,0,1,3.581,1.753,5.922,5.922,0,0,1,.963,3.443M216,56.841a3.292,3.292,0,0,0-.47-1.867,2.127,2.127,0,0,0-1.937-1.013,2.311,2.311,0,0,0-1.933.99,3.6,3.6,0,0,0-.718,1.889Z" transform="translate(-127.444 -48.066)" fill="#fff"/>
        </g>
      </g>
    </g>
  </g>
</svg>
