<svg xmlns="http://www.w3.org/2000/svg" width="105.874" height="105" viewBox="0 0 105.874 105">
  <g id="Group_54751" data-name="Group 54751" transform="translate(-60.5 -212.13)">
    <g id="Group_51880" data-name="Group 51880" transform="translate(93.585 231.889)">
      <path id="Path_48624" data-name="Path 48624" d="M203.561,259.221a4.35,4.35,0,0,1-.947,1.253c-.624.61-1.248,1.156-1.857,1.777-1.675,1.709-3.39,3.38-5.084,5.07q-5.084,5.07-10.171,10.138-10.172,10.135-20.347,20.269l-6.511,6.486c-3.135,3.123-4.241,3.126-7.372.006q-8.542-8.511-17.082-17.025c-1.972-1.967-2.258-3.712-.864-5.173,1.412-1.479,3.36-1.2,5.367.781.218.215.43.436.648.652q6.921,6.884,13.846,13.764c.535.531,1.1,1.029,2.087,1.943,6.156-6.315,12.193-12.6,18.336-18.783,7.826-7.874,15.736-15.666,23.618-23.484,1.054-1.046,2.505-2.282,4.074-1.591a4.094,4.094,0,0,1,2.435,2.915A1.875,1.875,0,0,1,203.561,259.221Z" transform="translate(-132.459 -255.104)" fill="#ffcd01" stroke="#ffcd01" stroke-width="3"/>
    </g>
    <path id="Path_48625" data-name="Path 48625" d="M164.925,256.876l-6.745,4.2q.138,1.759.138,3.549a45.323,45.323,0,1,1-16.345-34.842l5.471-4.777a52.483,52.483,0,1,0,17.481,31.867Z" transform="translate(0 0)" fill="#1e73c9"/>
  </g>
</svg>
