<svg xmlns="http://www.w3.org/2000/svg" xmlns:xlink="http://www.w3.org/1999/xlink" width="23" height="24" viewBox="0 0 23 24">
  <defs>
    <linearGradient id="linear-gradient" x1="0.5" x2="0.5" y2="1" gradientUnits="objectBoundingBox">
      <stop offset="0" stop-color="#1e73c9"/>
      <stop offset="0.251" stop-color="#0082c8"/>
      <stop offset="0.773" stop-color="#0082c8"/>
      <stop offset="1" stop-color="#1e73c9"/>
    </linearGradient>
  </defs>
  <g id="Other_Appliances" data-name="Other Appliances" transform="translate(9701 -11264)">
    <path id="Path_50945" data-name="Path 50945" d="M-996.144,58.145l-.568.568,9.665,9.663.568-.568Zm-1.137,1.137-.568.568,9.665,9.663.568-.568Z" transform="translate(-8694.501 11214.347)" fill-rule="evenodd" fill="url(#linear-gradient)"/>
    <path id="Path_50946" data-name="Path 50946" d="M-990.977,48.493a3.92,3.92,0,0,0-1.771,1.045,4.037,4.037,0,0,0-1.015,3.608l-2.963,3.029a.412.412,0,0,0,0,.573.391.391,0,0,0,.561,0l3.069-3.136a.411.411,0,0,0,.1-.391,3.258,3.258,0,0,1,.807-3.109,3.028,3.028,0,0,1,2.21-.836l-1.51,1.544a.412.412,0,0,0-.1.415l.629,1.93a.4.4,0,0,0,.251.256l1.887.643a.391.391,0,0,0,.406-.1l1.51-1.542a3.176,3.176,0,0,1-.816,2.258,3.1,3.1,0,0,1-3.044.825.391.391,0,0,0-.381.1l-3.081,3.149a.411.411,0,0,0,0,.573.391.391,0,0,0,.561,0l2.976-3.041a3.837,3.837,0,0,0,3.53-1.037,4.1,4.1,0,0,0,1.021-3.9.4.4,0,0,0-.28-.286.391.391,0,0,0-.383.1l-2,2.044-1.465-.5-.49-1.5,2-2.044a.411.411,0,0,0,.1-.391.4.4,0,0,0-.279-.287,3.879,3.879,0,0,0-2.046,0Zm-8.933,11.092a.393.393,0,0,0-.273.123l-4.133,4.222a3.837,3.837,0,0,0-3.529,1.035,4.1,4.1,0,0,0-1.021,3.9.4.4,0,0,0,.28.286.391.391,0,0,0,.383-.1l2-2.042,1.467.5.488,1.5-2,2.042a.411.411,0,0,0-.1.392.4.4,0,0,0,.281.287,3.9,3.9,0,0,0,3.817-1.043,4.039,4.039,0,0,0,1.015-3.608l4.12-4.211a.412.412,0,0,0,0-.573.391.391,0,0,0-.561,0l-4.226,4.319a.412.412,0,0,0-.1.389,3.26,3.26,0,0,1-.807,3.111,3.039,3.039,0,0,1-2.209.833l1.509-1.542a.412.412,0,0,0,.1-.415l-.629-1.928a.4.4,0,0,0-.251-.256l-1.887-.643a.391.391,0,0,0-.406.1l-1.51,1.542a3.183,3.183,0,0,1,.816-2.259,3.1,3.1,0,0,1,3.044-.823.391.391,0,0,0,.381-.106l4.237-4.328a.412.412,0,0,0,.09-.449A.4.4,0,0,0-999.91,59.585Z" transform="translate(-8692 11216.136)" fill="url(#linear-gradient)"/>
    <path id="Path_50947" data-name="Path 50947" d="M-994.959,57.054a.4.4,0,0,0-.568,0l-3.411,3.411a.4.4,0,0,0,0,.568l9.1,9.1a.4.4,0,0,0,.568,0l3.411-3.411a.4.4,0,0,0,0-.568l-9.1-9.1Zm-.284.853,8.527,8.527-2.842,2.842-8.527-8.527Z" transform="translate(-8694.264 11214.646)" fill="#ffcd01"/>
    <path id="Path_50948" data-name="Path 50948" d="M-998.467,54.683a.4.4,0,0,0-.568,0l-2.274,2.274a.4.4,0,0,0,0,.568l1.137,1.137a.4.4,0,0,0,.569,0l2.274-2.274a.4.4,0,0,0,0-.568l-1.137-1.137Zm-.284.853.568.568-1.705,1.705-.568-.568,1.705-1.705Zm-7.95-7.792a.4.4,0,0,0-.292.118L-1008.131,49a.4.4,0,0,0-.044.518l1.421,1.989a.4.4,0,0,0,.295.167.4.4,0,0,0,.318-.117l1.705-1.705a.4.4,0,0,0,.116-.317.4.4,0,0,0-.166-.294l-1.989-1.421a.4.4,0,0,0-.226-.075Zm.035.928,1.327.947-1.035,1.035-.947-1.327.655-.655Z" transform="translate(-8692.147 11216.256)" fill="#ffcd01"/>
    <path id="Path_50949" data-name="Path 50949" d="M-1004.35,51.043l-.572.565,5.166,5.23.572-.565Z" transform="translate(-8692.8 11215.609)" fill-rule="evenodd" fill="url(#linear-gradient)"/>
  </g>
</svg>
