<svg xmlns="http://www.w3.org/2000/svg" xmlns:xlink="http://www.w3.org/1999/xlink" width="24.3" height="24.3" viewBox="0 0 24.3 24.3">
  <defs>
    <linearGradient id="linear-gradient" x1="0.5" x2="0.5" y2="1" gradientUnits="objectBoundingBox">
      <stop offset="0" stop-color="#1e73c9"/>
      <stop offset="0.251" stop-color="#0082c8"/>
      <stop offset="0.773" stop-color="#0082c8"/>
      <stop offset="1" stop-color="#1e73c9"/>
    </linearGradient>
  </defs>
  <g id="maintainece" transform="translate(9701.15 -11408.85)">
    <path id="labor_tool" data-name="labor tool" d="M23.628,9.131h-1.7a10.251,10.251,0,0,0-.879-2.121l1.2-1.2a.375.375,0,0,0,0-.53L18.72,1.754a.375.375,0,0,0-.53,0l-1.2,1.2a10.251,10.251,0,0,0-2.125-.88V.375A.375.375,0,0,0,14.49,0H9.509a.375.375,0,0,0-.375.375v1.7a10.251,10.251,0,0,0-2.125.879l-1.2-1.2a.375.375,0,0,0-.53,0L1.754,5.28a.375.375,0,0,0,0,.53l1.2,1.2a10.251,10.251,0,0,0-.88,2.125H.375A.375.375,0,0,0,0,9.51v4.982a.375.375,0,0,0,.375.375h1.7a10.251,10.251,0,0,0,.879,2.123l-1.2,1.2a.375.375,0,0,0,0,.53L5.28,22.246a.375.375,0,0,0,.53,0l1.2-1.2a10.251,10.251,0,0,0,2.125.88v1.7A.375.375,0,0,0,9.51,24h4.982a.375.375,0,0,0,.375-.375v-1.7a10.251,10.251,0,0,0,2.125-.88l1.2,1.2a.375.375,0,0,0,.53,0l3.525-3.525a.375.375,0,0,0,0-.53l-1.2-1.2a10.251,10.251,0,0,0,.88-2.125h1.7A.375.375,0,0,0,24,14.489V9.509a.375.375,0,0,0-.375-.375Zm-.378,4.985H21.638a.375.375,0,0,0-.363.281,9.5,9.5,0,0,1-1.025,2.466.375.375,0,0,0,.058.455l1.14,1.14-2.993,2.993-1.14-1.14a.375.375,0,0,0-.452-.061A9.5,9.5,0,0,1,14.4,21.275a.375.375,0,0,0-.281.363V23.25H9.884V21.638a.375.375,0,0,0-.281-.363A9.5,9.5,0,0,1,7.137,20.25a.375.375,0,0,0-.455.058L5.542,21.45,2.55,18.458l1.14-1.14a.375.375,0,0,0,.06-.455A9.5,9.5,0,0,1,2.726,14.4a.375.375,0,0,0-.363-.281H.75V9.884H2.362A.375.375,0,0,0,2.725,9.6,9.5,9.5,0,0,1,3.75,7.137a.375.375,0,0,0-.058-.455L2.55,5.542,5.542,2.55l1.14,1.14a.375.375,0,0,0,.455.06A9.5,9.5,0,0,1,9.6,2.725a.375.375,0,0,0,.281-.363V.75h4.232V2.362a.375.375,0,0,0,.281.363A9.5,9.5,0,0,1,16.863,3.75a.375.375,0,0,0,.455-.058l1.14-1.14,2.993,2.993-1.14,1.14a.375.375,0,0,0-.061.452A9.5,9.5,0,0,1,21.275,9.6a.375.375,0,0,0,.363.281H23.25Z" transform="translate(-9701 11409)" stroke="#1e73c9" stroke-width="0.3" fill="url(#linear-gradient)"/>
    <path id="labor_tool-2" data-name="labor tool" d="M15.809,11.9a1.125,1.125,0,0,0-1.591,0l-.266.266L12.188,10.4l2.1-2.1h.905a.375.375,0,0,0,.266-.109L17.051,6.6a.375.375,0,0,0,0-.53L15.991,5.009a.375.375,0,0,0-.53,0L13.87,6.6a.375.375,0,0,0-.109.266v.906l-2.1,2.1-2.1-2.1V6.865a.375.375,0,0,0-.11-.266l-1.6-1.59a.375.375,0,0,0-.53,0L6.263,6.07a.375.375,0,0,0,0,.53L7.854,8.191a.375.375,0,0,0,.266.11h.905l2.1,2.1L9.36,12.166,9.095,11.9a1.118,1.118,0,0,0-.8-.329h0A1.114,1.114,0,0,0,7.5,11.9l-2.65,2.655a1.875,1.875,0,1,0,2.651,2.651l2.652-2.651a1.125,1.125,0,0,0,0-1.591L9.892,12.7l1.766-1.765L13.425,12.7l-.265.266a1.125,1.125,0,0,0,0,1.591l2.651,2.651a1.875,1.875,0,1,0,2.652-2.651ZM14.51,7.02,15.726,5.8l.53.53L15.041,7.551h-.53Zm-5.705.531h-.53L7.058,6.335l.53-.53L8.8,7.02Zm.825,6.474L6.975,16.676a1.151,1.151,0,0,1-1.591,0,1.125,1.125,0,0,1,0-1.591l2.652-2.652a.375.375,0,0,1,.265-.109h0a.375.375,0,0,1,.265.109l1.061,1.061a.375.375,0,0,1,0,.531Zm8.3,2.651a1.125,1.125,0,0,1-1.591,0l-2.654-2.651a.375.375,0,0,1,0-.531l1.061-1.061a.375.375,0,0,1,.53,0l2.652,2.652a1.125,1.125,0,0,1,0,1.591Zm-2.666-3.2a.375.375,0,1,0-.53.53l2.121,2.122a.375.375,0,1,0,.53-.53Zm-7.216,0L5.925,15.6a.375.375,0,1,0,.53.53l2.121-2.122a.375.375,0,1,0-.53-.53Z" transform="translate(-9701 11409)" fill="#ffcd01" stroke="#ffcd01" stroke-width="0.1"/>
  </g>
</svg>
