<svg xmlns="http://www.w3.org/2000/svg" xmlns:xlink="http://www.w3.org/1999/xlink" width="154.648" height="45.52" viewBox="0 0 154.648 45.52">
  <defs>
    <linearGradient id="linear-gradient" x1="0.808" y1="0.5" x2="-1.573" y2="0.5" gradientUnits="objectBoundingBox">
      <stop offset="0" stop-color="gold"/>
      <stop offset="0.075" stop-color="#fece00"/>
      <stop offset="0.48" stop-color="#fca704"/>
      <stop offset="0.803" stop-color="#fa8e07"/>
      <stop offset="1" stop-color="#fa8608"/>
    </linearGradient>
    <linearGradient id="linear-gradient-2" x1="0.862" y1="0.178" x2="-0.501" y2="1.948" gradientUnits="objectBoundingBox">
      <stop offset="0" stop-color="#e82b36"/>
      <stop offset="1" stop-color="#b4005a"/>
    </linearGradient>
    <linearGradient id="linear-gradient-3" x1="-0.507" y1="-0.956" x2="0.606" y2="0.489" gradientUnits="objectBoundingBox">
      <stop offset="0" stop-color="#2f8e5b"/>
      <stop offset="0.39" stop-color="#4ea157"/>
      <stop offset="0.768" stop-color="#67b054"/>
      <stop offset="1" stop-color="#70b653"/>
    </linearGradient>
  </defs>
  <g id="Google_Play" data-name="Google Play" transform="translate(-25.459 -94.589)">
    <g id="Group_54451" data-name="Group 54451" transform="translate(25.459 94.589)">
      <g id="Group_54447" data-name="Group 54447">
        <rect id="Rectangle_902" data-name="Rectangle 902" width="153.501" height="44.371" rx="7.382" transform="translate(0.574 0.574)"/>
        <path id="Path_52510" data-name="Path 52510" d="M174.287,140.108H31.279a5.827,5.827,0,0,1-5.82-5.82V100.409a5.827,5.827,0,0,1,5.82-5.82H174.287a5.827,5.827,0,0,1,5.82,5.82v33.879A5.827,5.827,0,0,1,174.287,140.108ZM31.279,95.737a4.678,4.678,0,0,0-4.673,4.673v33.879a4.678,4.678,0,0,0,4.673,4.672H174.287a4.678,4.678,0,0,0,4.673-4.672V100.409a4.678,4.678,0,0,0-4.673-4.673Z" transform="translate(-25.459 -94.589)" fill="#96999c"/>
      </g>
      <g id="Group_54449" data-name="Group 54449" transform="translate(11.532 8.204)">
        <path id="Path_52511" data-name="Path 52511" d="M122.626,127.429a4.862,4.862,0,1,0,4.88,4.862A4.792,4.792,0,0,0,122.626,127.429Zm0,7.808a2.954,2.954,0,1,1,2.744-2.946A2.813,2.813,0,0,1,122.626,135.237Zm-10.645-7.808a4.862,4.862,0,1,0,4.879,4.862A4.792,4.792,0,0,0,111.981,127.429Zm0,7.808a2.954,2.954,0,1,1,2.743-2.946A2.813,2.813,0,0,1,111.981,135.237ZM99.318,128.92v2.062h4.935a4.3,4.3,0,0,1-1.123,2.6,5.055,5.055,0,0,1-3.812,1.509,5.488,5.488,0,0,1,0-10.975,5.26,5.26,0,0,1,3.72,1.473l1.455-1.455a7.2,7.2,0,0,0-5.174-2.081,7.551,7.551,0,1,0,0,15.1,6.9,6.9,0,0,0,5.267-2.118,6.817,6.817,0,0,0,1.786-4.825,6.7,6.7,0,0,0-.111-1.289Zm51.787,1.6a4.519,4.519,0,0,0-4.162-3.093,4.62,4.62,0,0,0-4.584,4.862,4.757,4.757,0,0,0,4.824,4.862A4.836,4.836,0,0,0,151.234,135l-1.657-1.105a2.778,2.778,0,0,1-2.394,1.345,2.472,2.472,0,0,1-2.357-1.473l6.5-2.688Zm-6.63,1.621a2.667,2.667,0,0,1,2.541-2.836,1.882,1.882,0,0,1,1.8,1.031Zm-5.284,4.714h2.136V122.568h-2.136Zm-3.5-8.342h-.073a3.371,3.371,0,0,0-2.56-1.087,4.866,4.866,0,0,0,0,9.723,3.316,3.316,0,0,0,2.56-1.105h.073v.7c0,1.86-.994,2.855-2.6,2.855a2.689,2.689,0,0,1-2.449-1.731l-1.86.773a4.634,4.634,0,0,0,4.309,2.873c2.5,0,4.622-1.473,4.622-5.064v-8.728h-2.026Zm-2.449,6.721a2.957,2.957,0,0,1,0-5.893,2.97,2.97,0,0,1,0,5.893Zm27.868-12.669H156v14.289h2.132v-5.414h2.978a4.444,4.444,0,1,0,0-8.875Zm.055,6.887h-3.034v-4.9h3.034a2.45,2.45,0,1,1,0,4.9Zm13.18-2.052a4,4,0,0,0-3.806,2.187l1.894.791a2.02,2.02,0,0,1,1.949-1.048,2.054,2.054,0,0,1,2.243,1.838v.147a4.726,4.726,0,0,0-2.225-.551c-2.04,0-4.118,1.121-4.118,3.217a3.3,3.3,0,0,0,3.548,3.143,3.008,3.008,0,0,0,2.72-1.4h.074v1.1h2.059v-5.478C178.685,128.818,176.791,127.4,174.346,127.4Zm-.257,7.831c-.7,0-1.673-.35-1.673-1.213,0-1.1,1.213-1.526,2.261-1.526a3.8,3.8,0,0,1,1.949.478A2.586,2.586,0,0,1,174.089,135.234Zm12.1-7.519-2.445,6.195h-.073l-2.537-6.195h-2.3l3.8,8.659-2.169,4.816h2.224l5.864-13.475Zm-19.21,9.142h2.132V122.568h-2.132Z" transform="translate(-56.146 -110.739)" fill="#fff"/>
        <g id="Group_54448" data-name="Group 54448">
          <path id="Path_52512" data-name="Path 52512" d="M42.215,106.738a2.288,2.288,0,0,0-.528,1.6V133.6a2.286,2.286,0,0,0,.528,1.6l.085.083,14.149-14.149v-.334L42.3,106.656Z" transform="translate(-41.687 -106.285)" fill="#40bff2"/>
          <path id="Path_52513" data-name="Path 52513" d="M67.175,129.7l-4.716-4.718v-.334l4.717-4.717.106.06,5.588,3.175c1.6.907,1.6,2.391,0,3.3l-5.588,3.175Z" transform="translate(-47.697 -110.125)" fill="url(#linear-gradient)"/>
          <path id="Path_52514" data-name="Path 52514" d="M61.487,131.625,56.664,126.8,42.43,141.034a1.858,1.858,0,0,0,2.374.07l16.683-9.479" transform="translate(-41.902 -112.114)" fill="url(#linear-gradient-2)"/>
          <path id="Path_52515" data-name="Path 52515" d="M61.487,116,44.8,106.518a1.858,1.858,0,0,0-2.374.07l14.234,14.234Z" transform="translate(-41.902 -106.133)" fill="url(#linear-gradient-3)"/>
        </g>
      </g>
      <g id="Group_54450" data-name="Group 54450" transform="translate(47.519 7.973)">
        <path id="Path_52516" data-name="Path 52516" d="M97.342,107.3a2.442,2.442,0,0,0-1.62-.625,2.583,2.583,0,0,0,0,5.163,1.95,1.95,0,0,0,2.147-1.816H95.957v-.79H98.9c0,2.362-1.259,3.474-3.182,3.474a3.45,3.45,0,0,1,0-6.9A3.323,3.323,0,0,1,98,106.7Z" transform="translate(-92.326 -105.808)" fill="#fff"/>
        <path id="Path_52517" data-name="Path 52517" d="M107.31,105.918v.849h-3.074v2.148h2.684v.849h-2.684v2.03h3.172v.849h-4.079v-6.724Z" transform="translate(-95.509 -105.84)" fill="#fff"/>
        <path id="Path_52518" data-name="Path 52518" d="M115.178,105.918v.858h-2.04v5.866h-.917v-5.866h-2.04v-.858Z" transform="translate(-97.492 -105.84)" fill="#fff"/>
        <path id="Path_52519" data-name="Path 52519" d="M122.971,105.918v6.724h-.908v-6.724Z" transform="translate(-100.93 -105.84)" fill="#fff"/>
        <path id="Path_52520" data-name="Path 52520" d="M130.012,105.918v.858h-2.04v5.866h-.917v-5.866h-2.04v-.858Z" transform="translate(-101.784 -105.84)" fill="#fff"/>
        <path id="Path_52521" data-name="Path 52521" d="M139.674,105.808a3.45,3.45,0,1,1-3.4,3.455A3.41,3.41,0,0,1,139.674,105.808Zm0,6.021a2.573,2.573,0,1,0-2.489-2.566A2.506,2.506,0,0,0,139.674,111.829Z" transform="translate(-105.043 -105.808)" fill="#fff"/>
        <path id="Path_52522" data-name="Path 52522" d="M151.8,112.642l-3.064-5.065v5.065h-.908v-6.724h.9l3.035,5.026v-5.026h.908v6.724Z" transform="translate(-108.386 -105.84)" fill="#fff"/>
      </g>
    </g>
  </g>
</svg>
