<svg xmlns="http://www.w3.org/2000/svg" width="19.863" height="19.863" viewBox="0 0 19.863 19.863">
  <path id="path" d="M20.467,13.334a8.064,8.064,0,0,1-7.133,7.133v.993a.9.9,0,1,1-1.806,0v-.993A7.9,7.9,0,0,1,4.4,13.334H3.4a.9.9,0,1,1,0-1.806H4.4A7.9,7.9,0,0,1,11.529,4.4V3.4a.9.9,0,1,1,1.806,0V4.4a8.064,8.064,0,0,1,7.133,7.133h.993a.9.9,0,1,1,0,1.806Zm-8.035,5.417a6.32,6.32,0,1,0-6.32-6.32,6.281,6.281,0,0,0,6.32,6.32Zm0-2.709a3.611,3.611,0,1,1,3.611-3.611,3.622,3.622,0,0,1-3.611,3.611Zm0-1.806a1.806,1.806,0,1,0-1.806-1.806,1.811,1.811,0,0,0,1.806,1.806Z" transform="translate(-2.5 -2.5)" fill="#fff"/>
</svg>
