<svg id="carpenter_big" data-name="carpenter big" xmlns="http://www.w3.org/2000/svg" xmlns:xlink="http://www.w3.org/1999/xlink" width="67" height="70" viewBox="0 0 67 70">
  <defs>
    <linearGradient id="linear-gradient" x1="0.5" x2="0.5" y2="1" gradientUnits="objectBoundingBox">
      <stop offset="0" stop-color="#1e73c9"/>
      <stop offset="0.192" stop-color="#0082c8"/>
      <stop offset="0.818" stop-color="#0082c8"/>
      <stop offset="1" stop-color="#1e73c9"/>
    </linearGradient>
  </defs>
  <g id="Group_52310" data-name="Group 52310">
    <path id="Path_48804" data-name="Path 48804" d="M84.255,357.04a1.482,1.482,0,0,0-2.308-.267l-6.089,6.089a1.483,1.483,0,0,0,0,2.1l6.648,6.649a1.482,1.482,0,0,0,1.048.434h1.377a1.483,1.483,0,0,0,1.048-.434l3.681-3.681a1.482,1.482,0,0,0,.212-1.83Zm.063,12.036h-.149L79,363.911l3.719-3.718,4.012,6.469Z" transform="translate(-67.04 -307.97)" fill="#ffcd01"/>
    <path id="Path_48805" data-name="Path 48805" d="M81.651,8.677,73.261.427a1.5,1.5,0,0,0-2.1,0l-36.915,36.3h0L15.521,55.136a1.441,1.441,0,0,0,0,2.063L28.106,69.573A1.5,1.5,0,0,0,29.155,70h6.293a1.5,1.5,0,0,0,1.049-.427l9.844-9.679.033-.035.031-.033a1.454,1.454,0,0,0,.1-.12l0,0h0l0,0L48.8,56.507a1.44,1.44,0,0,0,.25-1.089l-.729-4.164,4.235-.717a1.488,1.488,0,0,0,.96-.6,1.439,1.439,0,0,0,.25-1.089l-.729-4.164,4.235-.717a1.487,1.487,0,0,0,.96-.6,1.439,1.439,0,0,0,.25-1.089l-.729-4.164,4.235-.717a1.461,1.461,0,0,0,1.21-1.685l-.729-4.164,4.235-.717a1.461,1.461,0,0,0,1.21-1.685l-.729-4.164,4.235-.717a1.461,1.461,0,0,0,1.21-1.685L71.9,18.427l4.235-.717a1.461,1.461,0,0,0,1.21-1.685l-.729-4.164,4.235-.717a1.476,1.476,0,0,0,1.162-1A1.445,1.445,0,0,0,81.651,8.677ZM34.834,67.083H29.769l-11.1-10.916,16.354-16.08,2,3.169-.046,5.033h0a1.439,1.439,0,0,0,.232.8l5.459,8.436.736,1.138ZM74.654,9.235a1.461,1.461,0,0,0-1.21,1.685l.729,4.164-4.235.717a1.486,1.486,0,0,0-.96.6,1.44,1.44,0,0,0-.25,1.089l.729,4.164-4.235.717a1.486,1.486,0,0,0-.96.6,1.44,1.44,0,0,0-.25,1.089l.729,4.164-4.235.717a1.461,1.461,0,0,0-1.21,1.685l.729,4.164-4.235.717a1.487,1.487,0,0,0-.96.6,1.44,1.44,0,0,0-.25,1.089l.729,4.164-4.235.717a1.461,1.461,0,0,0-1.21,1.685l.729,4.164-4.235.717a1.487,1.487,0,0,0-.96.6,1.44,1.44,0,0,0-.25,1.089l.876,5.006-.666.927-5.411-8.362.045-5.024a1.44,1.44,0,0,0-.223-.782l-2.592-4.109L72.211,3.521l5.316,5.227Z" transform="translate(-15.086)" fill="url(#linear-gradient)"/>
    <path id="Path_48806" data-name="Path 48806" d="M267.558,208.415l-.077.077a1.482,1.482,0,1,0,2.1,2.1l.077-.077a1.482,1.482,0,0,0-2.1-2.1Z" transform="translate(-232.009 -179.566)" fill="#ffcd01"/>
    <path id="Path_48807" data-name="Path 48807" d="M210.024,230.811l-5.748,5.748a1.482,1.482,0,0,0,2.1,2.1l5.748-5.748a1.482,1.482,0,0,0-2.1-2.1Z" transform="translate(-177.592 -198.952)" fill="#ffcd01"/>
  </g>
</svg>
