<svg id="Other_Appliances_Big" data-name="Other Appliances Big" xmlns="http://www.w3.org/2000/svg" xmlns:xlink="http://www.w3.org/1999/xlink" width="67" height="70" viewBox="0 0 67 70">
  <defs>
    <linearGradient id="linear-gradient" x1="0.5" x2="0.5" y2="1" gradientUnits="objectBoundingBox">
      <stop offset="0" stop-color="#1e73c9"/>
      <stop offset="0.251" stop-color="#0082c8"/>
      <stop offset="0.773" stop-color="#0082c8"/>
      <stop offset="1" stop-color="#1e73c9"/>
    </linearGradient>
  </defs>
  <path id="Path_50945" data-name="Path 50945" d="M-992.879,58.145l-1.657,1.657,28.174,28.169,1.657-1.657Zm-3.314,3.314-1.657,1.657,28.174,28.169,1.657-1.657Z" transform="translate(1023.017 -33.368)" fill-rule="evenodd" fill="url(#linear-gradient)"/>
  <path id="Path_50946" data-name="Path 50946" d="M-956.5,48.755a11.417,11.417,0,0,0-5.158,3.048,11.785,11.785,0,0,0-2.956,10.524l-8.632,8.834a1.2,1.2,0,0,0,0,1.672,1.137,1.137,0,0,0,1.634,0l8.938-9.148a1.2,1.2,0,0,0,.3-1.141,9.513,9.513,0,0,1,2.351-9.069,8.815,8.815,0,0,1,6.439-2.438l-4.4,4.5a1.2,1.2,0,0,0-.28,1.21l1.832,5.629a1.17,1.17,0,0,0,.731.748L-950.2,65a1.137,1.137,0,0,0,1.182-.286l4.4-4.5A9.271,9.271,0,0,1-947,66.8a9.017,9.017,0,0,1-8.867,2.406,1.138,1.138,0,0,0-1.11.3l-8.975,9.185a1.2,1.2,0,0,0,0,1.672,1.136,1.136,0,0,0,1.634,0l8.668-8.871a11.168,11.168,0,0,0,10.284-3.025,11.974,11.974,0,0,0,2.974-11.378,1.17,1.17,0,0,0-.816-.835,1.137,1.137,0,0,0-1.115.3l-5.825,5.961-4.269-1.459-1.426-4.368,5.821-5.961a1.2,1.2,0,0,0,.3-1.14,1.169,1.169,0,0,0-.813-.837,11.287,11.287,0,0,0-5.961,0Zm-26.023,32.351a1.143,1.143,0,0,0-.794.36l-12.039,12.315a11.167,11.167,0,0,0-10.279,3.02,11.974,11.974,0,0,0-2.974,11.378,1.17,1.17,0,0,0,.816.836,1.137,1.137,0,0,0,1.115-.3l5.825-5.957,4.273,1.455,1.421,4.373-5.821,5.957a1.2,1.2,0,0,0-.3,1.143,1.169,1.169,0,0,0,.817.838,11.352,11.352,0,0,0,11.118-3.043,11.791,11.791,0,0,0,2.955-10.524l12-12.283a1.2,1.2,0,0,0,0-1.672,1.137,1.137,0,0,0-1.634,0l-12.309,12.6a1.2,1.2,0,0,0-.3,1.136,9.517,9.517,0,0,1-2.351,9.074,8.848,8.848,0,0,1-6.435,2.429l4.4-4.5a1.2,1.2,0,0,0,.28-1.21l-1.832-5.624a1.17,1.17,0,0,0-.731-.748l-5.5-1.875a1.137,1.137,0,0,0-1.182.286l-4.4,4.5A9.289,9.289,0,0,1-1004,98.474a9.015,9.015,0,0,1,8.867-2.4,1.138,1.138,0,0,0,1.11-.309l12.341-12.625a1.2,1.2,0,0,0,.261-1.31A1.154,1.154,0,0,0-982.521,81.107Z" transform="translate(1009 -46.921)" fill="url(#linear-gradient)"/>
  <path id="Path_50947" data-name="Path 50947" d="M-987.113,57.279a1.172,1.172,0,0,0-1.657,0l-9.943,9.943a1.172,1.172,0,0,0,0,1.657L-972.2,95.394a1.172,1.172,0,0,0,1.657,0l9.943-9.943a1.172,1.172,0,0,0,0-1.657l-26.515-26.515Zm-.829,2.486,24.858,24.858-8.286,8.286-24.858-24.858Z" transform="translate(1021.396 -34.795)" fill="#ffcd01"/>
  <path id="Path_50948" data-name="Path 50948" d="M-979.733,67.972a1.172,1.172,0,0,0-1.657,0l-6.629,6.629a1.172,1.172,0,0,0,0,1.657l3.314,3.314a1.172,1.172,0,0,0,1.657,0l6.629-6.629a1.172,1.172,0,0,0,0-1.657Zm-.829,2.486,1.657,1.657-4.972,4.972-1.657-1.657,4.971-4.972Zm-23.176-22.714a1.172,1.172,0,0,0-.851.343L-1007.9,51.4a1.172,1.172,0,0,0-.129,1.511l4.142,5.8a1.172,1.172,0,0,0,.859.488,1.172,1.172,0,0,0,.927-.341l4.971-4.971a1.17,1.17,0,0,0,.339-.924,1.17,1.17,0,0,0-.485-.857l-5.8-4.142a1.173,1.173,0,0,0-.659-.22Zm.1,2.705,3.868,2.76-3.017,3.016-2.76-3.868Z" transform="translate(1010.009 -47.744)" fill="#ffcd01"/>
  <path id="Path_50949" data-name="Path 50949" d="M-1003.256,51.043l-1.666,1.648,15.06,15.247,1.666-1.648Z" transform="translate(1014.48 -43.312)" fill-rule="evenodd" fill="url(#linear-gradient)"/>
</svg>
