<svg id="air-conditioner_Big" data-name="air-conditioner Big" xmlns="http://www.w3.org/2000/svg" xmlns:xlink="http://www.w3.org/1999/xlink" width="70" height="64" viewBox="0 0 70 64">
  <defs>
    <linearGradient id="linear-gradient" x1="0.5" x2="0.5" y2="1" gradientUnits="objectBoundingBox">
      <stop offset="0" stop-color="#1e73c9"/>
      <stop offset="0.192" stop-color="#0082c8"/>
      <stop offset="0.818" stop-color="#0082c8"/>
      <stop offset="1" stop-color="#1e73c9"/>
    </linearGradient>
  </defs>
  <circle id="Ellipse_342" data-name="Ellipse 342" cx="1.469" cy="1.469" r="1.469" transform="translate(40.49 8.817)" fill="#ffcd01"/>
  <circle id="Ellipse_343" data-name="Ellipse 343" cx="1.469" cy="1.469" r="1.469" transform="translate(26.013 8.817)" fill="#ffcd01"/>
  <path id="Path_48795" data-name="Path 48795" d="M307.389,261A1.389,1.389,0,0,0,306,262.389v22.922a7.641,7.641,0,1,0,13.043-5.4,1.389,1.389,0,1,0-1.965,1.965,4.862,4.862,0,1,1-8.3,3.438V262.389A1.389,1.389,0,0,0,307.389,261Z" transform="translate(-264.348 -228.952)" fill="#ffcd01"/>
  <path id="Path_48796" data-name="Path 48796" d="M100.2,279.908a1.389,1.389,0,0,0-1.965,0,7.641,7.641,0,1,0,13.043,5.4V262.389a1.389,1.389,0,1,0-2.778,0v22.922a4.862,4.862,0,1,1-8.3-3.438A1.389,1.389,0,0,0,100.2,279.908Z" transform="translate(-82.933 -228.952)" fill="#ffcd01"/>
  <path id="Path_48797" data-name="Path 48797" d="M75.724,261a1.389,1.389,0,0,0-1.389,1.389v8.335a2.778,2.778,0,0,1-5.557,0,1.389,1.389,0,0,0-2.778,0,5.557,5.557,0,1,0,11.114,0v-8.335A1.389,1.389,0,0,0,75.724,261Z" transform="translate(-56.831 -228.521)" fill="#ffcd01"/>
  <path id="Path_48798" data-name="Path 48798" d="M367.389,261A1.389,1.389,0,0,0,366,262.389v8.335a5.557,5.557,0,1,0,11.114,0,1.389,1.389,0,0,0-2.778,0,2.778,2.778,0,0,1-5.557,0v-8.335A1.389,1.389,0,0,0,367.389,261Z" transform="translate(-316.282 -228.521)" fill="#ffcd01"/>
  <path id="Path_48799" data-name="Path 48799" d="M246,279.06a1.389,1.389,0,1,0,2.778,0v-16.67a1.389,1.389,0,1,0-2.778,0Z" transform="translate(-212.389 -228.599)" fill="#ffcd01"/>
  <circle id="Ellipse_344" data-name="Ellipse 344" cx="1.469" cy="1.469" r="1.469" transform="translate(34.988 23.024)" fill="#ffcd01"/>
  <path id="Path_48800" data-name="Path 48800" d="M64.531,21H5.469A5.52,5.52,0,0,0,0,26.557V47.395a1.378,1.378,0,0,0,1.367,1.389h27.48a1.389,1.389,0,0,0,0-2.778H10.937V40.449H59.062v5.557H41.152a1.389,1.389,0,0,0,0,2.778h27.48A1.378,1.378,0,0,0,70,47.395V26.557A5.52,5.52,0,0,0,64.531,21Zm2.734,25.006H61.8V39.06A1.378,1.378,0,0,0,60.43,37.67H9.57A1.378,1.378,0,0,0,8.2,39.06v6.946H2.734V26.557a2.76,2.76,0,0,1,2.734-2.778H64.531a2.76,2.76,0,0,1,2.734,2.778Z" transform="translate(0 -21)" fill="url(#linear-gradient)"/>
</svg>
