<svg xmlns="http://www.w3.org/2000/svg" xmlns:xlink="http://www.w3.org/1999/xlink" width="24.25" height="24.5" viewBox="0 0 24.25 24.5">
  <defs>
    <linearGradient id="linear-gradient" x1="0.5" x2="0.5" y2="1" gradientUnits="objectBoundingBox">
      <stop offset="0" stop-color="#1e73c9"/>
      <stop offset="0.251" stop-color="#0082c8"/>
      <stop offset="0.773" stop-color="#0082c8"/>
      <stop offset="1" stop-color="#1e73c9"/>
    </linearGradient>
  </defs>
  <g id="Home_Cleaning" data-name="Home Cleaning" transform="translate(9701 -11360.75)">
    <path id="vacuum" d="M25.905,11.431H24.153V8.859A.867.867,0,0,0,23.277,8H21.524V7.144A5.2,5.2,0,0,0,16.267,2H11.886a6.935,6.935,0,0,0-7.01,6.859v12H6.629v-12a5.2,5.2,0,0,1,5.257-5.144h4.381a3.468,3.468,0,0,1,3.5,3.429V8H18.019a.867.867,0,0,0-.876.857v2.572h-.876a5.2,5.2,0,0,0-5.257,5.144v6a.867.867,0,0,0,.876.857h3.873a4.42,4.42,0,0,0,8.026,0h2.12C26.389,23.433,26.389,11.431,25.905,11.431ZM4,24.29l3.5-1.715ZM18.9,9.716h3.5v1.715H18.9Zm.876,14.574a2.619,2.619,0,0,1-2.55-1.946,2.234,2.234,0,0,1-.079-.626,2.519,2.519,0,0,1,.07-.574.186.186,0,0,1,.053-.154,2.536,2.536,0,0,1,.14-.377l.1-.171a2.571,2.571,0,0,1,.21-.3L17.844,20a2.609,2.609,0,0,1,.3-.266l.14-.111a2.648,2.648,0,0,1,.508-.266h.131a2.676,2.676,0,0,1,.447-.111h.175a2.821,2.821,0,0,1,.429,0h.2l.315.069A2.612,2.612,0,0,1,22.2,20.775h0a2.531,2.531,0,0,1,.123.394v.111a2.522,2.522,0,0,1,.079.437h0a2.251,2.251,0,0,1-.079.592h0A2.617,2.617,0,0,1,19.772,24.29Zm5.257-2.572h-.876a4.2,4.2,0,0,0-.079-.78.375.375,0,0,0-.053-.231,4.3,4.3,0,0,0-.175-.54L23.767,20A4.221,4.221,0,0,0,21.3,17.715a4.922,4.922,0,0,0-.622-.163h-.026a4.7,4.7,0,0,0-.78-.077h-.1a4.474,4.474,0,0,0-.789.077H18.86a4.371,4.371,0,0,0-.745.231h-.053a4.413,4.413,0,0,0-.666.352h-.061l-.079.051a4.358,4.358,0,0,0-.517.429l-.079.077a4.287,4.287,0,0,0-.876,1.226l-.07.146a4.219,4.219,0,0,0-.219.686V20.9a4.2,4.2,0,0,0-.105.823H12.762V16.574a3.468,3.468,0,0,1,3.5-3.429h8.762Z" transform="translate(-9703.269 11359)" stroke="#fff" stroke-width="0.5" fill="url(#linear-gradient)"/>
    <g id="Rectangle_1667" data-name="Rectangle 1667" transform="translate(-9701 11379.55)" fill="#fff" stroke="#ffcd01" stroke-width="1.5">
      <rect width="6.928" height="5.196" rx="1.5" stroke="none"/>
      <rect x="0.75" y="0.75" width="5.428" height="3.696" rx="0.75" fill="none"/>
    </g>
  </g>
</svg>
