<svg xmlns="http://www.w3.org/2000/svg" width="55" height="72" viewBox="0 0 55 72">
  <g id="Electrician_Big" data-name="Electrician Big" transform="translate(-15 -91)">
    <path id="plug" d="M57.528,19.958H50.167V3.8a2.948,2.948,0,0,0-5.889,0v16.16H20.722V3.8a2.948,2.948,0,0,0-5.889,0v16.16H7.472C6.658,19.958,6,21.226,6,22v7c0,8.4,14.722,18.15,14.722,31.64v4.527h5.889V71H38.389V65.167h5.889V60.64C44.278,47.15,59,37.4,59,29V22c0-.773-.658-2.04-1.472-2.04" transform="translate(10 91)" fill="none" stroke="#1e73c9" stroke-width="2"/>
    <path id="Flash" d="M71.74,45.5a.522.522,0,0,1-.48-.728l4.276-9.97H65.32a.522.522,0,0,1-.389-.872L79.275,17.973a.522.522,0,0,1,.866.561L75.616,28.767H85.4a.522.522,0,0,1,.394.866L72.134,45.317A.522.522,0,0,1,71.74,45.5ZM66.492,33.753h9.836a.522.522,0,0,1,.48.728L73.533,42.12,84.252,29.812H74.813a.523.523,0,0,1-.478-.734l3.524-7.968Z" transform="translate(-32.997 101.881)" fill="#ffcd01" stroke="#ffcd01" stroke-width="1"/>
  </g>
</svg>
