<svg xmlns="http://www.w3.org/2000/svg" xmlns:xlink="http://www.w3.org/1999/xlink" width="24.6" height="24.6" viewBox="0 0 24.6 24.6">
  <defs>
    <linearGradient id="linear-gradient" x1="0.5" x2="0.5" y2="1" gradientUnits="objectBoundingBox">
      <stop offset="0" stop-color="#1e73c9"/>
      <stop offset="0.251" stop-color="#0082c8"/>
      <stop offset="0.773" stop-color="#0082c8"/>
      <stop offset="1" stop-color="#1e73c9"/>
    </linearGradient>
  </defs>
  <g id="Pest_Control" data-name="Pest Control" transform="translate(-29.724 -1.7)">
    <path id="Path_50953" data-name="Path 50953" d="M52.43,123.854v-3.007H39.588v3.007H37.993v1.5h-.8a2.328,2.328,0,0,0-2.391,2.254v9.853a.8.8,0,0,1-1.6,0V123.851H34.8v-1.5H33.209V120.1H31.616v2.253H30.024v1.5h1.592v13.613a2.4,2.4,0,0,0,4.782,0v-9.853a.777.777,0,0,1,.8-.752h.8v12.859H54.024V123.854Zm-11.249-1.5h9.656v1.5H41.181Zm11.25,15.867H39.586V125.356H52.431Z" transform="translate(0 -113.718)" stroke="#fff" stroke-width="0.6" fill="url(#linear-gradient)"/>
    <path id="Path_50954" data-name="Path 50954" d="M273.547,61.242l1.105,1.105a2.669,2.669,0,0,1,3.78,0l1.105-1.105a4.232,4.232,0,0,0-5.991,0Z" transform="translate(-230.508 -55.814)" fill="#ffcd01" stroke="#fff" stroke-width="0.6"/>
    <path id="Path_50955" data-name="Path 50955" d="M236.346,1.563a5.761,5.761,0,0,1,4.1,1.7l1.105-1.105a7.353,7.353,0,0,0-10.41,0l1.105,1.105a5.761,5.761,0,0,1,4.1-1.7Z" transform="translate(-190.186 2)" fill="#ffcd01" stroke="#fff" stroke-width="0.6"/>
    <path id="Path_50956" data-name="Path 50956" d="M244.644,271.68a4.5,4.5,0,1,0-4.5-4.5A4.506,4.506,0,0,0,244.644,271.68Zm0-1.486a3,3,0,0,1-1.54-.424l4.131-4.131a3.013,3.013,0,0,1-2.591,4.555Zm0-6.03a3,3,0,0,1,1.54.425l-4.131,4.131a3.013,3.013,0,0,1,2.591-4.555Z" transform="translate(-198.249 -249.468)" fill="#ffcd01" stroke="#fff" stroke-width="0.6"/>
  </g>
</svg>
