<svg xmlns="http://www.w3.org/2000/svg" width="19" height="25" viewBox="0 0 19 25">
  <g id="Electrician" transform="translate(-31.5 -423.5)">
    <path id="plug" d="M23.5,7.5H21V1.959a1,1,0,0,0-2,0V7.5H11V1.959a1,1,0,0,0-2,0V7.5H6.5c-.277,0-.5.435-.5.7v2.4c0,2.88,5,6.223,5,10.848V23h2v2h4V23h2V21.448c0-4.625,5-7.969,5-10.848V8.2c0-.265-.223-.7-.5-.7" transform="translate(26 423)" fill="none" stroke="#1e73c9" stroke-width="1"/>
    <path id="Flash" d="M67.192,27.352a.18.18,0,0,1-.166-.251L68.5,23.662H64.978a.18.18,0,0,1-.134-.3l4.947-5.5a.18.18,0,0,1,.3.193l-1.561,3.529H71.9a.18.18,0,0,1,.136.3L67.328,27.29A.18.18,0,0,1,67.192,27.352Zm-1.81-4.05h3.392a.18.18,0,0,1,.166.251l-1.13,2.635,3.7-4.245H68.252a.18.18,0,0,1-.165-.253L69.3,18.941Z" transform="translate(-27.486 415.654)" fill="#ffcd01" stroke="#ffcd01" stroke-width="0.4"/>
  </g>
</svg>
