<svg id="Carpenter" xmlns="http://www.w3.org/2000/svg" xmlns:xlink="http://www.w3.org/1999/xlink" width="23" height="24" viewBox="0 0 23 24">
  <defs>
    <linearGradient id="linear-gradient" x1="0.5" x2="0.5" y2="1" gradientUnits="objectBoundingBox">
      <stop offset="0" stop-color="#1e73c9"/>
      <stop offset="0.192" stop-color="#0082c8"/>
      <stop offset="0.818" stop-color="#0082c8"/>
      <stop offset="1" stop-color="#1e73c9"/>
    </linearGradient>
  </defs>
  <g id="Group_52310" data-name="Group 52310" transform="translate(0)">
    <path id="Path_48804" data-name="Path 48804" d="M78.449,356.579a.508.508,0,0,0-.791-.091l-2.086,2.085a.508.508,0,0,0,0,.718l2.277,2.277a.507.507,0,0,0,.359.149h.472a.508.508,0,0,0,.359-.149l1.261-1.261a.508.508,0,0,0,.072-.627Zm.022,4.123h-.051l-1.769-1.769,1.274-1.274,1.374,2.216Z" transform="translate(-72.552 -339.748)" fill="#ffcd01"/>
    <path id="Path_48805" data-name="Path 48805" d="M37.937,2.975,35.056.146a.516.516,0,0,0-.72,0L21.664,12.591h0L15.235,18.9a.494.494,0,0,0,0,.707l4.32,4.243a.514.514,0,0,0,.36.146h2.16a.514.514,0,0,0,.36-.146l3.379-3.318.011-.012.011-.011a.5.5,0,0,0,.034-.041h0l.787-1.094A.493.493,0,0,0,26.745,19l-.25-1.427,1.454-.246a.511.511,0,0,0,.33-.2.493.493,0,0,0,.086-.373l-.25-1.428,1.454-.246a.511.511,0,0,0,.33-.2.493.493,0,0,0,.086-.373l-.25-1.428,1.454-.246a.5.5,0,0,0,.415-.578l-.25-1.428,1.454-.246A.5.5,0,0,0,33.222,10l-.25-1.428,1.454-.246a.5.5,0,0,0,.415-.578l-.25-1.428,1.454-.246a.5.5,0,0,0,.415-.578l-.25-1.428,1.454-.246a.506.506,0,0,0,.4-.341A.5.5,0,0,0,37.937,2.975ZM21.865,23H20.127l-3.811-3.743,5.614-5.513.686,1.086L22.6,16.556h0a.493.493,0,0,0,.08.273l1.874,2.892.253.39ZM35.535,3.166a.5.5,0,0,0-.415.578l.25,1.428-1.454.246a.51.51,0,0,0-.33.2.493.493,0,0,0-.086.373l.25,1.428L32.3,7.668a.51.51,0,0,0-.33.2.493.493,0,0,0-.086.373l.25,1.428-1.454.246a.5.5,0,0,0-.415.578l.25,1.428-1.454.246a.511.511,0,0,0-.33.2.493.493,0,0,0-.086.373l.25,1.428-1.454.246a.5.5,0,0,0-.415.578l.25,1.428-1.454.246a.511.511,0,0,0-.33.2.493.493,0,0,0-.086.373l.3,1.716-.229.318-1.858-2.867.016-1.722a.493.493,0,0,0-.076-.268l-.89-1.409L34.7,1.207,36.521,3Z" transform="translate(-15.086)" fill="url(#linear-gradient)"/>
    <path id="Path_48806" data-name="Path 48806" d="M267.222,208.129l-.026.026a.508.508,0,1,0,.718.718l.026-.026a.508.508,0,0,0-.718-.718Z" transform="translate(-255.018 -198.238)" fill="#ffcd01"/>
    <path id="Path_48807" data-name="Path 48807" d="M205.96,230.525l-1.969,1.969a.508.508,0,0,0,.718.718l1.969-1.969a.508.508,0,0,0-.718-.718Z" transform="translate(-194.828 -219.601)" fill="#ffcd01"/>
  </g>
</svg>
