<svg xmlns="http://www.w3.org/2000/svg" xmlns:xlink="http://www.w3.org/1999/xlink" width="24" height="22" viewBox="0 0 24 22">
  <defs>
    <linearGradient id="linear-gradient" x1="0.5" x2="0.5" y2="1" gradientUnits="objectBoundingBox">
      <stop offset="0" stop-color="#1e73c9"/>
      <stop offset="0.192" stop-color="#0082c8"/>
      <stop offset="0.818" stop-color="#0082c8"/>
      <stop offset="1" stop-color="#1e73c9"/>
    </linearGradient>
  </defs>
  <g id="AC" transform="translate(9701 -11314)">
    <circle id="Ellipse_342" data-name="Ellipse 342" cx="0.5" cy="0.5" r="0.5" transform="translate(-9687.113 11317)" fill="#ffcd01"/>
    <circle id="Ellipse_343" data-name="Ellipse 343" cx="0.5" cy="0.5" r="0.5" transform="translate(-9692.078 11317)" fill="#ffcd01"/>
    <path id="Path_48795" data-name="Path 48795" d="M306.473,261a.473.473,0,0,0-.473.473v7.8a2.6,2.6,0,1,0,4.438-1.838.473.473,0,1,0-.669.668,1.654,1.654,0,1,1-2.824,1.17v-7.8A.473.473,0,0,0,306.473,261Z" transform="translate(-9992.689 11064.128)" fill="#ffcd01"/>
    <path id="Path_48796" data-name="Path 48796" d="M97.43,267.434a.473.473,0,0,0-.668,0,2.6,2.6,0,1,0,4.438,1.838v-7.8a.473.473,0,0,0-.945,0v7.8a1.654,1.654,0,1,1-2.824-1.17A.473.473,0,0,0,97.43,267.434Z" transform="translate(-9792.511 11064.128)" fill="#ffcd01"/>
    <path id="Path_48797" data-name="Path 48797" d="M69.309,261a.473.473,0,0,0-.473.473v2.836a.945.945,0,1,1-1.891,0,.473.473,0,0,0-.945,0,1.891,1.891,0,1,0,3.782,0v-2.836A.473.473,0,0,0,69.309,261Z" transform="translate(-9763.88 11064.2)" fill="#ffcd01"/>
    <path id="Path_48798" data-name="Path 48798" d="M366.473,261a.473.473,0,0,0-.473.473v2.836a1.891,1.891,0,1,0,3.781,0,.473.473,0,0,0-.945,0,.945.945,0,1,1-1.891,0v-2.836A.473.473,0,0,0,366.473,261Z" transform="translate(-10049.901 11064.2)" fill="#ffcd01"/>
    <path id="Path_48799" data-name="Path 48799" d="M246,267.145a.473.473,0,1,0,.945,0v-5.672a.473.473,0,1,0-.945,0Z" transform="translate(-9935.473 11064.188)" fill="#ffcd01"/>
    <circle id="Ellipse_344" data-name="Ellipse 344" cx="0.5" cy="0.5" r="0.5" transform="translate(-9689 11321.918)" fill="#ffcd01"/>
    <path id="Path_48800" data-name="Path 48800" d="M22.125,21H1.875A1.885,1.885,0,0,0,0,22.891v7.09a.471.471,0,0,0,.469.473H9.891a.473.473,0,0,0,0-.945H3.75V27.618h16.5v1.891H14.109a.473.473,0,0,0,0,.945h9.422A.471.471,0,0,0,24,29.981v-7.09A1.885,1.885,0,0,0,22.125,21Zm.938,8.508H21.187V27.145a.471.471,0,0,0-.469-.473H3.281a.471.471,0,0,0-.469.473v2.363H.937V22.891a.943.943,0,0,1,.937-.945h20.25a.943.943,0,0,1,.938.945Z" transform="translate(-9701 11293)" fill="url(#linear-gradient)"/>
  </g>
</svg>
