<svg xmlns="http://www.w3.org/2000/svg" id="prefix__search" width="22.98" height="22.98" viewBox="0 0 22.98 22.98">
    <path id="prefix__Path_1650" d="M5.093 145.949l-.8 2.986-2.924.065a11.51 11.51 0 01-.085-10.729l2.6.477 1.14 2.587a6.857 6.857 0 00.064 4.617z" data-name="Path 1650" transform="translate(0 -132.062)" style="fill:#fbbb00"/>
    <path id="prefix__Path_1651" d="M272.665 208.176a11.486 11.486 0 01-4.1 11.107l-3.278-.167-.464-2.9a6.848 6.848 0 002.946-3.5h-6.144v-4.546h11.037z" data-name="Path 1651" transform="translate(-249.885 -198.832)" style="fill:#518ef8"/>
    <path id="prefix__Path_1652" d="M47.822 315.972a11.494 11.494 0 01-17.314-3.515l3.724-3.048a6.834 6.834 0 009.847 3.5z" data-name="Path 1652" transform="translate(-29.14 -295.522)" style="fill:#28b446"/>
    <path id="prefix__Path_1653" d="M46.163 2.645l-3.722 3.048A6.833 6.833 0 0032.368 9.27l-3.743-3.064a11.492 11.492 0 0117.538-3.561z" data-name="Path 1653" transform="translate(-27.339)" style="fill:#f14336"/>
</svg>
