<svg xmlns="http://www.w3.org/2000/svg" width="1024" height="1024" viewBox="0 0 1024 1024">
  <g id="Group_54681" data-name="Group 54681" transform="translate(-17 -109)">
    <path id="Path_52719" data-name="Path 52719" d="M529,109c282.722,0,512,229.278,512,512s-229.278,512-512,512S17,903.722,17,621,246.278,109,529,109Z" transform="translate(0 0)" fill="#0052a2" fill-rule="evenodd"/>
    <path id="Path_52720" data-name="Path 52720" d="M511.458,131.662c260.523,0,471.8,211.275,471.8,471.8s-211.273,471.8-471.8,471.8-471.8-211.273-471.8-471.8,211.273-471.8,471.8-471.8Z" transform="translate(17.542 17.542)" fill="#fff" fill-rule="evenodd"/>
    <path id="Path_52721" data-name="Path 52721" d="M502.716,142.956c249.458,0,451.759,202.3,451.759,451.759s-202.3,451.759-451.759,451.759-451.76-202.3-451.76-451.759,202.3-451.759,451.76-451.759Z" transform="translate(26.285 26.285)" fill="#0052a2" fill-rule="evenodd"/>
    <path id="Path_52722" data-name="Path 52722" d="M495.861,151.811c240.783,0,436.05,195.267,436.05,436.05s-195.268,436.05-436.05,436.05S59.811,828.643,59.811,587.861s195.267-436.05,436.05-436.05Z" transform="translate(33.139 33.139)" fill="#fe0" fill-rule="evenodd"/>
    <path id="Path_52723" data-name="Path 52723" d="M400.366,252.912q14.432-6.889,21.539-15.56a29.9,29.9,0,0,0,7.125-19.36,19.271,19.271,0,0,0-5.147-13.818,16.942,16.942,0,0,0-12.827-5.464c-6.731,0-11.8,2.336-15.243,7.048-3.445,4.671-5.187,9.264-5.187,13.738a47.91,47.91,0,0,0,1.98,12.71,197.027,197.027,0,0,0,7.76,20.707ZM540.659,192.04v51.7H536.6q-2.033-14.9-7.112-23.7a36.71,36.71,0,0,0-14.636-14,40.24,40.24,0,0,0-19.6-5.193q-11.456,0-18.963,7t-7.488,15.917a18.823,18.823,0,0,0,4.742,12.454q6.828,8.3,32.508,22.048,20.94,11.23,28.6,17.271a41.916,41.916,0,0,1,11.815,14.147,37.514,37.514,0,0,1,4.137,17.083q0,16.988-13.169,29.274c-47.52,44.322-96.512-10.866-124.035-45.3-5.562-7.024-11.81-15.775-18.644-26.26-11.48,6.713-17.038,12.622-22.559,20.281-5.5,7.632-7.918,15.754-7.308,24.276.674,9.426,4.716,17.546,12.06,24.275,7.371,6.752,16.9,9.782,28.511,9.131,6.259-.351,9.305-.47,14.952-3.007q6.586-2.959,16.713-10.664c3.585,4.368,9.976,9.055,8.888,9.944-35.414,29.006-116.461,7.425-116.438-43.5V272.938h-76.53v45.526c0,7.563.474,12.575,1.43,14.975a9.837,9.837,0,0,0,4.666,4.742,20.2,20.2,0,0,0,10.008,2.672h5.42v4.063H210.517v-4.063h5.269c6.17,0,10.682-1.779,13.469-5.418,1.765-2.306,2.634-8.015,2.634-16.971V221.992c0-7.639-.474-12.686-1.43-15.089a9.7,9.7,0,0,0-4.515-4.742,20.431,20.431,0,0,0-10.158-2.633h-5.269v-4.1h64.041v4.1h-5.42a21.183,21.183,0,0,0-10.008,2.521,9.656,9.656,0,0,0-4.74,5.342c-.892,2.413-1.355,7.265-1.355,14.6v42.78h76.53v-42.78c0-7.639-.49-12.681-1.43-15.089a9.983,9.983,0,0,0-4.629-4.742,20.26,20.26,0,0,0-10.047-2.633h-5.267v-4.1H372.12v4.1h-5.3a20.923,20.923,0,0,0-10.009,2.521,9.334,9.334,0,0,0-4.817,5.342c-.827,2.409-1.242,7.263-1.242,14.6v65.449q9.931-12.608,34.978-26.093a119.308,119.308,0,0,1-7.073-18.775,57.289,57.289,0,0,1-1.881-14.072q0-18.851,13.882-28.747a41.317,41.317,0,0,1,24.608-7.714c8.73,0,15.878,2.56,21.372,7.751a25.16,25.16,0,0,1,8.278,19.114,29.532,29.532,0,0,1-8.015,20.507c-5.3,5.908-14.75,12.3-28.256,19.3,14.707,26.072,66.995,82.511,98.658,83.343,19.518.513,29.923-31.99,16.54-44.145-1.6-1.451-3.49-2.817-5.34-4.242q-4.3-3.313-23.48-14.074c-12.793-7.148-21.86-12.867-27.28-17.12a47.142,47.142,0,0,1-12.3-14.109,35.229,35.229,0,0,1-4.176-17.008q0-16.084,12.34-27.692,12.361-11.626,31.419-11.627c7.939,0,16.368,1.92,25.247,5.833,4.1,1.843,7.036,2.746,8.691,2.746a6.617,6.617,0,0,0,4.7-1.694q1.8-1.748,2.934-6.885Z" transform="translate(150.87 64.279)" fill="#0052a2" fill-rule="evenodd"/>
    <path id="Path_52724" data-name="Path 52724" d="M398.691,464.445c26.579-22.49,52.866-45.326,79.6-67.78-14.563-52.117,14.861-70.686,48.324-84.574-7.554,14.12-15.855,30.179-23.409,44.3,4.983,11.26,11.936,22.614,16.921,33.876,14.737,1.724,25.664.637,40.4,2.363,8.585-14.072,17.8-27.456,26.382-41.526,7.055,59.213-15.057,81.336-70.922,79.379l-82.337,71.966L558.011,637.13c31.366,31.291-11.551,69.091-38.611,44.985q-64.3-70.624-128.488-141.085l-81.993,75.941a56.8,56.8,0,1,1-35.751-32.654l84.42-79.918-52.316-57.5-4.829-5.292q-21.643,22.383-43.28,44.767c-8.987,7.309-19.792,9.019-28.147,1.486l-37.428-40.128c-7.236-5.946-11.932-12.709,1.183-25.215q21.975-19.559,43.951-39.12c-1.817-42.922,25.353-49.408,56.662-50.689,19.243-17.971,49.206-31.541,102.742-35.427q-11.821,42.5-23.641,85-13.221,12.486-26.441,24.967l2.854,3.1.007,0,49.786,54.107Zm-165.282,147.7-9.475,34,21.49,22.9,30.443-5.624,12.639-27.159-21.967-27.94-33.129,3.827Z" transform="translate(130.676 146.886)" fill="#0052a2" fill-rule="evenodd"/>
    <path id="Path_52725" data-name="Path 52725" d="M94.3,480.983,167.4,450.132l5.448,11.6-28.76,12.139,10.664,22.708,28.76-12.139,5.442,11.587L115.859,526.88l-5.442-11.588,31.96-13.49-10.664-22.708-31.96,13.49-5.448-11.6Z" transform="translate(59.839 265.427)" fill="#0052a2"/>
    <path id="Path_52726" data-name="Path 52726" d="M149.938,502.348l-3.389-10.714c5.533-1.5,10.228-1.561,14.123-.179,3.887,1.4,7.35,4.667,10.373,9.837,2.753,4.71,4.079,8.579,4.008,11.627A12.578,12.578,0,0,1,172.5,520.6c-1.637,2.081-5.352,4.654-11.184,7.719l-15.725,8.113a74.014,74.014,0,0,0-9.559,5.691,36.583,36.583,0,0,0-5.686,5.464l-6.1-10.43c.738-.738,1.856-1.778,3.369-3.09.7-.585,1.146-.988,1.363-1.2a24.2,24.2,0,0,1-8.393-3.133,16.58,16.58,0,0,1-5.5-5.691c-2.4-4.095-2.869-8.077-1.426-11.913q2.174-5.785,8.681-9.2a19.991,19.991,0,0,1,8.6-2.411,14.454,14.454,0,0,1,7.79,1.811,37.07,37.07,0,0,1,8.029,6.738c4.045,4.3,7.151,7.13,9.268,8.494l1.338-.7c2.59-1.361,4.123-2.819,4.646-4.4s-.037-3.745-1.661-6.521a7.742,7.742,0,0,0-3.983-3.644q-2.315-.841-6.428.048Zm-2.645,19.809a67.838,67.838,0,0,1-5.8-5.333c-2.5-2.5-4.4-3.993-5.682-4.508a7.17,7.17,0,0,0-5.929.422,8.036,8.036,0,0,0-3.907,4.21,5.734,5.734,0,0,0,.4,5.276,9.81,9.81,0,0,0,5.558,4.189,10.154,10.154,0,0,0,5.915.17,36.713,36.713,0,0,0,6.773-3.023l2.672-1.4Z" transform="translate(74.568 296.775)" fill="#0052a2"/>
    <path id="Path_52727" data-name="Path 52727" d="M171.754,508.907l7.684,8.381-5.961,4.912q11.076-1.245,16.781,4.976a12.9,12.9,0,0,1,3.515,7.144,14.969,14.969,0,0,1-1.575,8.3,24.914,24.914,0,0,1,9.706.571,14.594,14.594,0,0,1,6.862,4.173,13.056,13.056,0,0,1,1.753,16.662q-1.94,3.254-8.209,8.411l-27.963,23.045-8.333-9.087,25-20.6q6.517-5.371,7.547-7.867a5.261,5.261,0,0,0-1.079-5.914,7.807,7.807,0,0,0-4.792-2.373,11.582,11.582,0,0,0-6.561,1.163,49.43,49.43,0,0,0-9.729,6.7l-21,17.31-8.333-9.087,23.97-19.754q6.389-5.267,7.794-7.275a6.5,6.5,0,0,0,1.378-3.774,5.383,5.383,0,0,0-1.627-3.523,8.184,8.184,0,0,0-4.911-2.583,10.99,10.99,0,0,0-6.38,1.011q-3.388,1.514-9.679,6.7L136.349,554.04l-8.333-9.087,43.738-36.046Z" transform="translate(86.383 311.175)" fill="#0052a2"/>
    <path id="Path_52728" data-name="Path 52728" d="M191.27,538.384l10.039,5.72-4.068,6.418q10.126-4.43,17.581-.184a13.493,13.493,0,0,1,5.672,5.764,14.955,14.955,0,0,1,1.206,8.352,24.708,24.708,0,0,1,9.415-2.3A15.1,15.1,0,0,1,239,564.111a14.6,14.6,0,0,1,6.328,6.49,13.812,13.812,0,0,1,.768,8.844q-.782,3.664-5.063,10.4l-19.084,30.108-10.886-6.2,17.06-26.915c2.964-4.679,4.5-7.9,4.611-9.694a5.408,5.408,0,0,0-2.954-5.31,8.03,8.03,0,0,0-5.329-.851,11.257,11.257,0,0,0-5.862,3.028q-2.85,2.578-7.068,9.22L197.19,605.852l-10.886-6.2,16.357-25.811q4.361-6.88,5.04-9.2a6.384,6.384,0,0,0,.082-3.992,5.631,5.631,0,0,0-2.7-2.876,8.438,8.438,0,0,0-5.512-1.017,10.7,10.7,0,0,0-5.736,2.83c-1.82,1.622-4.155,4.68-7.024,9.206l-14.507,22.889-10.888-6.2,29.849-47.093Z" transform="translate(112.376 334.103)" fill="#0052a2"/>
    <path id="Path_52729" data-name="Path 52729" d="M235.831,602.973l10.912,6.562q-5.3,6.61-11.789,8.705a20.8,20.8,0,0,1-13.88-.587q-11.69-4.256-13.765-15.035-1.6-8.608,2.72-19.289,5.168-12.76,13.927-17.858,8.736-5.106,17.647-1.863,10.008,3.641,12.727,13.315T250.483,602.1L220.76,591.283c-1.542,4.054-1.861,7.533-.931,10.425a8.655,8.655,0,0,0,5.482,5.853,7.3,7.3,0,0,0,5.382-.027,12.546,12.546,0,0,0,5.138-4.56Zm6.231-13.473c1.51-3.972,1.84-7.275.981-9.933a7.873,7.873,0,0,0-4.925-5.312,8.606,8.606,0,0,0-7.726.916q-3.83,2.294-6.051,7.88l17.721,6.449Z" transform="translate(147.718 352.703)" fill="#0052a2"/>
    <path id="Path_52730" data-name="Path 52730" d="M247.382,625.863l-12.209-3.318,15.974-52.812,11.333,3.08-2.269,7.5q4.526-4.532,7.357-5.589a9.314,9.314,0,0,1,5.794-.263,14.132,14.132,0,0,1,7.24,4.834l-7.464,11.143a9.918,9.918,0,0,0-5.038-3.83,6.53,6.53,0,0,0-4.834.431c-1.526.744-3.035,2.445-4.57,5.078s-3.664,8.448-6.38,17.426l-4.934,16.315Z" transform="translate(169.728 358.774)" fill="#0052a2"/>
    <path id="Path_52731" data-name="Path 52731" d="M287.373,593.965l-11.2-3.514c1.877-5.157,4.519-8.837,7.948-11.07,3.441-2.214,8.249-3.03,14.45-2.413,5.649.563,9.752,1.753,12.346,3.557a13.141,13.141,0,0,1,5.172,6.392c.86,2.466.951,6.825.254,13.114l-2.008,16.865a65.934,65.934,0,0,0-.566,10.687,34.037,34.037,0,0,0,1.46,7.551l-12.509-1.247c-.215-1-.472-2.463-.738-4.389-.1-.88-.2-1.458-.257-1.748a23.606,23.606,0,0,1-7.522,4.719,17.941,17.941,0,0,1-8.07,1.008q-7.368-.735-11.113-5.724a16.3,16.3,0,0,1-2.966-12.017,17.58,17.58,0,0,1,2.849-8.062,13.65,13.65,0,0,1,6.034-5.01,39.314,39.314,0,0,1,10.426-2.37c6.034-.678,10.263-1.464,12.657-2.325l.159-1.441c.308-2.792-.071-4.818-1.135-6.133-1.068-1.3-3.257-2.118-6.587-2.45a8.243,8.243,0,0,0-5.434,1q-2.054,1.313-3.644,5.017Zm15.6,13.416a72.2,72.2,0,0,1-7.935,1.448c-3.595.511-5.975,1.127-7.155,1.826a6.438,6.438,0,0,0-3.036,4.846,7.57,7.57,0,0,0,1.4,5.45,6.4,6.4,0,0,0,4.788,2.714,10.289,10.289,0,0,0,6.807-1.914,9.2,9.2,0,0,0,3.539-4.5,32.223,32.223,0,0,0,1.272-6.994l.321-2.881Z" transform="translate(198.31 364.219)" fill="#0052a2"/>
    <path id="Path_52732" data-name="Path 52732" d="M350.531,632.688l-12.684.63L336.3,605.313q-.493-8.888-1.453-11.459a8.223,8.223,0,0,0-2.874-3.924A6.973,6.973,0,0,0,327.5,588.7a9.26,9.26,0,0,0-5.8,2.358,10.443,10.443,0,0,0-3.287,5.663q-.782,3.462-.273,12.658l1.373,24.849-12.683.63-3.034-54.865,11.775-.585.445,8.06q5.775-9.626,15.3-10.1a17.14,17.14,0,0,1,7.769,1.347,13.31,13.31,0,0,1,5.5,4.165,17.294,17.294,0,0,1,2.819,5.979,50.859,50.859,0,0,1,1.247,9.717l1.886,34.108Z" transform="translate(223.11 364.669)" fill="#0052a2"/>
    <path id="Path_52733" data-name="Path 52733" d="M388.566,634.313l-11.489,2.514-1.914-7.865a19.433,19.433,0,0,1-5.1,8.313,15.619,15.619,0,0,1-7.318,3.958q-8.077,1.768-15.63-4.408t-10.794-19.48q-3.318-13.627.552-21.924a17.253,17.253,0,0,1,12.424-10.187q7.827-1.713,15.381,4.5l-6.482-26.62,12.376-2.707,18,73.906Zm-39.837-20.7q2.086,8.568,5.1,11.953c2.883,3.247,6.131,4.494,9.709,3.71,2.858-.625,4.939-2.549,6.264-5.757s1.308-7.572-.032-13.078c-1.5-6.143-3.555-10.37-6.138-12.649a9.276,9.276,0,0,0-8.446-2.429,8.861,8.861,0,0,0-6.392,5.622q-2,4.652-.06,12.628Z" transform="translate(247.232 351.555)" fill="#0052a2"/>
    <path id="Path_52734" data-name="Path 52734" d="M400.974,604.722l10.776-7.091q4.745,6.125,9.676,7.623a13.525,13.525,0,0,0,10.3-1.21c3.8-1.918,6.161-4.286,7.041-7.111a9.562,9.562,0,0,0-.719-7.918,7.958,7.958,0,0,0-3.491-3.42,11.109,11.109,0,0,0-5.877-.758c-1.691.131-5.4.758-11.1,1.834q-11.012,2.1-17.044.091a22.476,22.476,0,0,1-12.951-10.753,21.579,21.579,0,0,1-2.837-10.852,17.614,17.614,0,0,1,3.5-10.463,28.01,28.01,0,0,1,10.21-8.127q11.038-5.565,19.692-2.846,8.67,2.742,14.127,11.819l-11.48,6.548c-2.436-3.192-4.918-5.122-7.419-5.782s-5.424-.165-8.748,1.512c-3.435,1.729-5.688,3.885-6.713,6.482a5.634,5.634,0,0,0,.447,5.1,6.582,6.582,0,0,0,4.04,3.184q3.435,1.027,13.369-1,9.939-2.009,15.458-1.611a21.378,21.378,0,0,1,10.293,3.551,26.791,26.791,0,0,1,8.313,9.49,24.63,24.63,0,0,1,3.248,12.184,18.51,18.51,0,0,1-3.713,11.452q-3.733,5.032-11.366,8.87-11.1,5.6-20.335,2.73t-16.694-13.527Z" transform="translate(286.121 337.555)" fill="#0052a2"/>
    <path id="Path_52735" data-name="Path 52735" d="M414.475,555.624l9.211-7.071,5.358,6.273a17.425,17.425,0,0,1,.38-8.951,14.146,14.146,0,0,1,5.065-7.227q6.493-4.987,16-2.629t18.413,12.77q9.127,10.685,9.638,20.12.5,9.436-6,14.427a14.393,14.393,0,0,1-6.809,2.909,27.635,27.635,0,0,1-9.417-.771L474.7,606.992l-9.871,7.579-50.352-58.947Zm27.4,13.125c4.091,4.79,7.955,7.708,11.569,8.706q5.418,1.534,9.023-1.224,3.436-2.637,3.025-7.547c-.272-3.27-2.457-7.318-6.548-12.108q-5.751-6.729-10.888-8.164t-8.606,1.222a8.466,8.466,0,0,0-3.276,7.812q.333,5.027,5.7,11.3Z" transform="translate(309.246 331.669)" fill="#0052a2"/>
    <path id="Path_52736" data-name="Path 52736" d="M454.919,543.564l-9.209,6.994c-3.543-4.3-5.358-8.406-5.466-12.348-.083-3.942,1.811-8.21,5.735-12.8,3.573-4.185,6.863-6.8,9.869-7.879a14.464,14.464,0,0,1,8.473-.632q3.973.99,11.739,6.94l13.823,10.783a73.335,73.335,0,0,0,9.147,6.269,38.833,38.833,0,0,0,7.474,2.952l-7.914,9.266c-1-.372-2.436-.965-4.286-1.8-.835-.4-1.4-.639-1.686-.747a21.092,21.092,0,0,1,.078,8.549,15.859,15.859,0,0,1-3.506,6.966,15.031,15.031,0,0,1-11.114,5.718,20.158,20.158,0,0,1-17.826-10.841,12.511,12.511,0,0,1-1.146-7.527,34.4,34.4,0,0,1,3.582-9.58c2.686-5.166,4.295-8.957,4.834-11.329l-1.187-.912c-2.3-1.767-4.3-2.569-6.044-2.438s-3.647,1.436-5.755,3.9a7.287,7.287,0,0,0-2.072,4.868q.045,2.347,2.455,5.629Zm20.363-5.1a63.3,63.3,0,0,1-3.043,7.1c-1.5,3.137-2.257,5.363-2.28,6.683a6.372,6.372,0,0,0,2.634,5.053,8.6,8.6,0,0,0,5.581,1.857,6.475,6.475,0,0,0,5.01-2.329,9.061,9.061,0,0,0,2.013-6.456,8.857,8.857,0,0,0-2.049-5.262,35.091,35.091,0,0,0-5.494-4.82l-2.373-1.824Z" transform="translate(329.297 317.05)" fill="#0052a2"/>
    <path id="Path_52737" data-name="Path 52737" d="M527.566,515.753l-6.919,10.1-24.808-15.273q-7.874-4.849-10.632-5.622a9.111,9.111,0,0,0-5.04-.1,6.673,6.673,0,0,0-3.676,2.709,8.188,8.188,0,0,0-1.4,5.837,10.335,10.335,0,0,0,2.9,5.849q2.493,2.634,10.641,7.652l22.013,13.552-6.917,10.1-48.6-29.923,6.42-9.374,7.14,4.4q-4.819-10.086.375-17.668a16.044,16.044,0,0,1,5.716-5.168,14,14,0,0,1,6.788-1.771,19.6,19.6,0,0,1,6.759,1.354,57.147,57.147,0,0,1,9.026,4.754l30.216,18.6Z" transform="translate(340.887 297.231)" fill="#0052a2"/>
    <path id="Path_52738" data-name="Path 52738" d="M538.736,479.97l-4.345,11.315-27.8-9.591q-8.822-3.044-11.693-3.211a9.042,9.042,0,0,0-4.934.976,6.444,6.444,0,0,0-2.94,3.424,8.115,8.115,0,0,0,.021,5.986,10.668,10.668,0,0,0,4.214,5.081q3.055,2.036,12.185,5.186l24.665,8.51-4.345,11.315L469.309,500.17l4.031-10.5,8,2.761q-7.09-8.8-3.827-17.294a15.47,15.47,0,0,1,4.343-6.255,13.681,13.681,0,0,1,6.193-3.172,19.714,19.714,0,0,1,6.907-.122,58.67,58.67,0,0,1,9.922,2.707l33.857,11.681Z" transform="translate(352.254 277.224)" fill="#0052a2"/>
    <path id="Path_52739" data-name="Path 52739" d="M523.355,453.923l5.541-11.069q7.568,4.186,10.55,10.032a17.863,17.863,0,0,1,1.077,13.132q-3.028,11.52-14.061,14.785-8.822,2.552-20.528-.208-13.989-3.308-20.395-10.928-6.411-7.6-4.1-16.379a19.1,19.1,0,0,1,12.388-13.6q9.793-3.725,26.829.552l-7.7,29.285q6.647,1.437,11.026-.394a8.637,8.637,0,0,0,5.462-5.87,6.3,6.3,0,0,0-.685-5.061,12.594,12.594,0,0,0-5.4-4.279ZM508.492,449.7q-6.514-1.4-10.52.288a7.859,7.859,0,0,0-4.96,5.281,7.505,7.505,0,0,0,1.9,7.158q2.869,3.324,8.988,4.733l4.593-17.461Z" transform="translate(361.169 255.91)" fill="#0052a2"/>
    <path id="Path_52740" data-name="Path 52740" d="M542.854,435.519l-.663,12.025-57.874-2.876.617-11.162,8.223.41q-5.673-3.161-7.4-5.541a8.083,8.083,0,0,1-1.574-5.294,12.991,12.991,0,0,1,3.341-7.774l13.132,4.389c-1.767,1.934-2.709,3.777-2.8,5.516a5.718,5.718,0,0,0,1.529,4.368c1.107,1.242,3.2,2.255,6.246,3.08s9.505,1.483,19.348,1.973l17.876.887Z" transform="translate(363.758 238.276)" fill="#0052a2"/>
  </g>
</svg>
