<svg id="Plumber_Big" data-name="Plumber Big" xmlns="http://www.w3.org/2000/svg" xmlns:xlink="http://www.w3.org/1999/xlink" width="70.1" height="70.1" viewBox="0 0 70.1 70.1">
  <defs>
    <linearGradient id="linear-gradient" x1="0.5" x2="0.5" y2="1" gradientUnits="objectBoundingBox">
      <stop offset="0" stop-color="#1e73c9"/>
      <stop offset="0.192" stop-color="#0082c8"/>
      <stop offset="0.818" stop-color="#0082c8"/>
      <stop offset="1" stop-color="#1e73c9"/>
    </linearGradient>
  </defs>
  <g id="_059---Tap" data-name="059---Tap" transform="translate(0 0)">
    <path id="Shape" d="M61.833,23.166h-35V13.833a3.5,3.5,0,0,1,3.5-3.5h24.5A4.686,4.686,0,0,0,58.216,8.88,4.633,4.633,0,0,0,59.5,5.417,4.77,4.77,0,0,0,54.635,1H11.667A8.177,8.177,0,0,0,3.5,9.167V64.308a3.488,3.488,0,0,0-1.688,1.625L.123,69.311A1.167,1.167,0,0,0,1.167,71h28a1.167,1.167,0,0,0,1.044-1.688l-1.689-3.377a3.488,3.488,0,0,0-1.688-1.625V37.166H52.5V39.5a2.333,2.333,0,0,0,2.333,2.333H66.5A2.333,2.333,0,0,0,68.833,39.5V36.842A2.325,2.325,0,0,0,70,34.833v-3.5A8.177,8.177,0,0,0,61.833,23.166ZM5.833,22H24.5V64H5.833Zm0-12.833a5.84,5.84,0,0,1,5.833-5.833H54.635A2.472,2.472,0,0,1,57.166,5.54,2.333,2.333,0,0,1,54.833,8h-24.5A5.84,5.84,0,0,0,24.5,13.833v5.833H5.833Zm-2.779,59.5L3.9,66.978a1.158,1.158,0,0,1,1.043-.645H25.391a1.158,1.158,0,0,1,1.043.645l.845,1.688ZM66.5,39.5H54.833V37.166H66.5Zm1.167-4.667H26.833V25.5h35a5.84,5.84,0,0,1,5.833,5.833Z" transform="translate(0 -0.999)" fill="url(#linear-gradient)"/>
    <path id="Shape-2" data-name="Shape" d="M8.155,21A1.155,1.155,0,0,0,7,22.155v2.311a1.155,1.155,0,1,0,2.311,0V22.155A1.155,1.155,0,0,0,8.155,21Z" transform="translate(1.088 2.35)" fill="#ffcd01" stroke="#ffcd01" stroke-width="0.2"/>
    <path id="Shape-3" data-name="Shape" d="M8.155,27A1.155,1.155,0,0,0,7,28.155V45.486a1.155,1.155,0,1,0,2.311,0V28.155A1.155,1.155,0,0,0,8.155,27Z" transform="translate(1.088 3.45)" fill="#ffcd01" stroke="#ffcd01" stroke-width="0.2"/>
    <path id="Shape-4" data-name="Shape" d="M52.426,39.338C52.088,39.683,44,47.849,44,55.176a9.243,9.243,0,0,0,18.486,0c0-7.326-8.082-15.493-8.426-15.837A1.155,1.155,0,0,0,52.426,39.338Zm.817,22.769a6.939,6.939,0,0,1-6.932-6.932c0-5.11,4.94-11.115,6.932-13.329,1.992,2.214,6.932,8.218,6.932,13.329A6.939,6.939,0,0,1,53.243,62.108Z" transform="translate(7.514 5.581)" fill="#ffcd01" stroke="#ffcd01" stroke-width="0.2"/>
  </g>
</svg>
