<svg xmlns="http://www.w3.org/2000/svg" width="14.767" height="12.418" viewBox="0 0 14.767 12.418">
    <g id="prefix__invisible" transform="translate(0 -7.831)" style="opacity:.551">
        <g id="prefix__Group_2517" data-name="Group 2517" transform="translate(0 7.831)">
            <path id="prefix__Path_20437" d="M52.655 44.716l-2.94 2.94a3.011 3.011 0 0 0 2.94-2.94z" data-name="Path 20437" transform="translate(-42.26 -39.185)"/>
            <path id="prefix__Path_20438" d="M46.75 34.267a12.9 12.9 0 0 0-2.309-2.032l-.93.93a11.981 11.981 0 0 1 1.951 1.62c-.806.833-3.136 2.958-5.9 2.958a5.533 5.533 0 0 1-.593-.033l-1.119 1.115a7.029 7.029 0 0 0 1.708.218c3.963 0 7.062-3.588 7.192-3.741a.8.8 0 0 0 0-1.035z" data-name="Path 20438" transform="translate(-32.175 -28.576)"/>
            <path id="prefix__Path_20439" d="M13.593 9.041a.149.149 0 0 0-.044-.106l-1.06-1.06a.15.15 0 0 0-.212 0L9.9 10.248a7.362 7.362 0 0 0-2.52-.466c-3.959 0-7.058 3.588-7.188 3.741a.8.8 0 0 0 0 1.035A13 13 0 0 0 3.147 17l-1.929 1.933a.15.15 0 0 0 0 .212l1.06 1.06a.15.15 0 0 0 .212 0L13.549 9.147a.149.149 0 0 0 .044-.106zm-12.113 5a11.078 11.078 0 0 1 3.384-2.4 3 3 0 0 0 .145 3.5l-.918.918A11.644 11.644 0 0 1 1.48 14.04z" data-name="Path 20439" transform="translate(0 -7.831)"/>
        </g>
    </g>
</svg>
